<?xml version="1.0" encoding="utf-8"?>
<!-- Generator: Adobe Illustrator 21.1.0, SVG Export Plug-In . SVG Version: 6.00 Build 0)  -->
<svg version="1.1" id="レイヤー_1" xmlns="http://www.w3.org/2000/svg" xmlns:xlink="http://www.w3.org/1999/xlink" x="0px"
	 y="0px" viewBox="0 0 116.1 116.1" style="enable-background:new 0 0 116.1 116.1;" xml:space="preserve">
<style type="text/css">
	.st0{opacity:0.4;}
	.st1{fill:#FF0000;}
</style>
<g class="st0">
	<g>
		<circle class="st1" cx="69.7" cy="35.9" r="6.6"/>
		<path class="st1" d="M0.1,113C0.1,113,0.1,113.1,0.1,113C0.1,113.1,0.1,113.1,0.1,113c0.2,0.3,0.3,0.6,0.4,0.8
			c0,0.1,0.1,0.1,0.1,0.2s0.1,0.1,0.1,0.2l0.1,0.1c0.1,0.2,0.3,0.3,0.4,0.5l0.1,0.1c0.1,0.1,0.1,0.1,0.2,0.2c0.1,0,0.1,0.1,0.1,0.1
			c0.1,0.1,0.2,0.1,0.3,0.2l0.1,0.1c0,0,0.1,0,0.1,0.1c0.1,0.1,0.3,0.1,0.4,0.2c0.1,0,0.1,0,0.2,0.1c0.1,0,0.2,0.1,0.2,0.1
			c0.3,0.1,0.6,0.1,0.9,0.1H112c2.3,0,4.1-1.8,4.1-4.1V85V4.1c0-2.3-1.8-4.1-4.1-4.1H4.1C1.8,0,0,1.8,0,4.1v80.7v27
			c0,0.3,0.1,0.7,0.1,1C0.1,112.9,0.1,113,0.1,113L0.1,113z M108.2,107.8H17.8l66.8-43.7l23.6,22.5
			C108.2,86.6,108.2,107.8,108.2,107.8z M8.2,8.2h100v67.1L87.9,55.9c-1.4-1.3-3.5-1.5-5.1-0.5L63.7,68L50.4,54.6
			C49,53.2,46.9,53,45.3,54L8.2,77.4V8.2z M8.2,87.1l38.7-24.4l9.8,9.9L8.2,104.3V87.1z"/>
	</g>
</g>
</svg>
