<?xml version="1.0" encoding="utf-8"?>
<!-- Generator: Adobe Illustrator 21.1.0, SVG Export Plug-In . SVG Version: 6.00 Build 0)  -->
<svg version="1.1" id="レイヤー_1" xmlns="http://www.w3.org/2000/svg" xmlns:xlink="http://www.w3.org/1999/xlink" x="0px"
	 y="0px" viewBox="0 0 116.1 116.1" style="enable-background:new 0 0 116.1 116.1;" xml:space="preserve">
<g>
	<g>
		<circle cx="69.7" cy="35.9" r="6.6"/>
		<path d="M0.1,113C0.1,113,0.1,113.1,0.1,113C0.1,113.1,0.1,113.1,0.1,113c0.2,0.3,0.3,0.6,0.4,0.8c0,0.1,0.1,0.1,0.1,0.2
			s0.1,0.1,0.1,0.2l0.1,0.1c0.1,0.2,0.3,0.3,0.4,0.5l0.1,0.1c0.1,0.1,0.1,0.1,0.2,0.2c0.1,0,0.1,0.1,0.1,0.1
			c0.1,0.1,0.2,0.1,0.3,0.2l0.1,0.1c0,0,0.1,0,0.1,0.1c0.1,0.1,0.3,0.1,0.4,0.2c0.1,0,0.1,0,0.2,0.1c0.1,0,0.2,0.1,0.2,0.1
			c0.3,0.1,0.6,0.1,0.9,0.1H112c2.3,0,4.1-1.8,4.1-4.1V85V4.1c0-2.3-1.8-4.1-4.1-4.1H4.1C1.8,0,0,1.8,0,4.1v80.7v27
			c0,0.3,0.1,0.7,0.1,1C0.1,112.9,0.1,113,0.1,113L0.1,113z M108.2,107.8H17.8l66.8-43.7l23.6,22.5V107.8z M8.2,8.2h100v67.1
			L87.9,55.9c-1.4-1.3-3.5-1.5-5.1-0.5L63.7,68L50.4,54.6C49,53.2,46.9,53,45.3,54L8.2,77.4C8.2,77.4,8.2,8.2,8.2,8.2z M8.2,87.1
			l38.7-24.4l9.8,9.9L8.2,104.3V87.1z"/>
	</g>
</g>
</svg>
